<svg xmlns="http://www.w3.org/2000/svg" viewBox="0 0 82.7 79.89"><defs><style>.cls-1{fill:#203561;}.cls-2{fill:#223561;}.cls-3{fill:#243661;}.cls-4{fill:#273762;}.cls-5{fill:#24335f;}.cls-6{fill:#253063;}.cls-7{fill:#212951;}.cls-8{fill:#222b54;}.cls-9{fill:#222e58;}.cls-10{font-size:12px;fill:#e33d13;font-family:BerlinSansFBDemi-Bold, Berlin Sans FB Demi;font-weight:700;}</style></defs><g id="Capa_2" data-name="Capa 2"><g id="Capa_1-2" data-name="Capa 1"><path class="cls-1" d="M32.14,47a9.72,9.72,0,0,1-9.66-6.9c-3.83-11.53-7-23.27-10.4-34.93C11,2.28,7.75,5,6.32,3l0-2A2,2,0,0,1,8.39.72c2.72.67,5.54-.12,8.27.58.74.34,1,1.09,1.48,1.69.15,1.26,0,2.6,1.14,3.54a2.81,2.81,0,0,0,2.3,2.33c15.91.3,31.82,0,47.73.15,2,0,4-.46,5.82.73a56.17,56.17,0,0,1,0,16.12L35.37,34a18.68,18.68,0,0,1-2.89.63c-4.43.21-5.09,2-2.33,5.31a4.65,4.65,0,0,0,2.44,1c11.9.16,23.8,0,35.7.08,1.81,0,3.64-.24,5.4.4,2.13,2.47,1.11,3.82-1.63,4.52-3.74.94-7.56.26-11.32.34-9.09.2-18.19.44-27.29.13A2.32,2.32,0,0,0,32.14,47Z"/><path class="cls-2" d="M62.9,56.76c-.08-4.54,2.83-7.55,6.49-7.56a6.68,6.68,0,0,1,6.71,6.61,6.4,6.4,0,0,1-7,6.52C65.19,62.16,63.12,59.82,62.9,56.76Z"/><path class="cls-3" d="M40.66,55.69a6.36,6.36,0,0,1-6.5,6.7c-3.72-.19-6.14-2.24-6.52-6.08-.34-3.39,2.91-7,6.19-7.09A7,7,0,0,1,40.66,55.69Z"/><path class="cls-4" d="M20.3,9.09a2.31,2.31,0,0,1-1-2.56c1.28,2.22,3.45,1.59,5.37,1.6,15,0,30,0,45,0,7.49,0,6.63-.89,6.43,6.75-.1,3.63,1.39,7.48-.94,11q0-8-.08-15.92c-3.59-1-7.25-.37-10.88-.44C49.53,9.2,34.91,10,20.3,9.09Z"/><path class="cls-5" d="M32.14,47c.52-1.23,1.32-1.38,2.71-1.34,7.54.21,15,.54,22.63-.31a35.69,35.69,0,0,1,10.05.08c2.44.43,6.18,1,6.57-3.46a1.7,1.7,0,0,1,.53-1l.53-.18c2,5.76,1.62,6.63-3.7,6.55C58.36,47.19,45.24,48,32.14,47Z"/><path class="cls-6" d="M31.19,41c-.34-.36-.69-.71-1-1.07,13,1,26.1.18,39.15.48,2,.05,4-.46,5.86.42l-.32.31C60.29,41.55,45.74,41.82,31.19,41Z"/><path class="cls-4" d="M8.32,1.14,6.28,1c3.38-1.8,7-.6,10.46-.67,1.47,0,1.55,1.43,1.4,2.66l-1-1C14.27.72,11.18,2.14,8.32,1.14Z"/><path class="cls-7" d="M6.32,3c1.93.7,5-1.71,5.76,2.18C10.56,3.38,7.33,6.11,6.32,3Z"/><path class="cls-8" d="M20.3,9.09q25.28,0,50.55,0c1.42,0,3-.48,4.17.87q-25.27,0-50.55,0C23.05,10,21.45,10.47,20.3,9.09Z"/><path class="cls-9" d="M31.19,41l43.66.13L74.1,42c-12.58,0-25.17,0-37.75,0C34.62,41.92,32.67,42.62,31.19,41Z"/><path class="cls-8" d="M8.32,1.14c2.94.22,6-1,8.78.82C14.18,1.6,11.11,2.91,8.32,1.14Z"/><text class="cls-10" transform="translate(0 77.43)">E - COMMERCE</text></g></g></svg>