<svg xmlns="http://www.w3.org/2000/svg" viewBox="0 0 260 260"><defs><style>.cls-1{fill:#07404b;stroke:#ee964b;stroke-miterlimit:10;stroke-width:10px;}.cls-2{fill:#ee964b;}</style></defs><g id="Capa_2" data-name="Capa 2"><g id="Capa_1-2" data-name="Capa 1"><circle class="cls-1" cx="130" cy="130" r="125"/><path class="cls-2" d="M195.11,80.81q-43.34,0-86.68,0a5.82,5.82,0,0,0-1.85.18,5.6,5.6,0,0,0-3.82,6.25,5.55,5.55,0,0,0,5.6,4.46h80.53c-1.17,7.12-2.31,14.1-3.47,21.07-1.77,10.6-3.59,21.19-5.3,31.79-.2,1.26-.52,1.68-1.85,1.68q-32.45-.08-64.89,0a1.68,1.68,0,0,1-1.88-1.35q-10.47-28.08-21-56.11Q85.69,76,80.91,63.26c-1.15-3.08-2.81-4.25-6-4.26-3.46,0-6.93,0-10.39,0a5.45,5.45,0,0,0,0,10.89c1.76,0,3.53.11,5.28,0a2.15,2.15,0,0,1,2.53,1.69Q85.94,108,99.61,144.44c.2.53.67,1.06.36,1.78H96.4c-9.57.13-17.33,9.89-15.3,19.23,1.33,6.12,4.87,10.35,10.8,12.47.92.33,1,.69.67,1.56a14.36,14.36,0,0,0-.78,5.68,16.36,16.36,0,0,0,29.67,9c3.29-4.61,3.86-9.66,2.18-15.23h16.84a6.06,6.06,0,0,0,2-.19,5.59,5.59,0,0,0,3.8-6.25,5.5,5.5,0,0,0-5.43-4.45q-18.83,0-37.64,0c-2,0-4,.06-6,0a5.42,5.42,0,0,1-5.11-7.11c.78-2.45,2.87-3.77,6-3.77H184c3.16,0,5.41-1.64,5.92-4.48.74-4.11,1.39-8.25,2.08-12.38q2.29-13.8,4.59-27.61c1.41-8.42,2.88-16.83,4.22-25.26C201.38,83.57,198.9,80.81,195.11,80.81Zm-86.94,98.12a5.44,5.44,0,1,1-5.42,5.45A5.61,5.61,0,0,1,108.17,178.93Z"/><path class="cls-2" d="M173.6,168a16.35,16.35,0,1,0,16.34,16.41A16.25,16.25,0,0,0,173.6,168Zm0,21.79a5.44,5.44,0,1,1,5.43-5.45A5.59,5.59,0,0,1,173.6,189.81Z"/></g></g></svg>